<?xml version="1.0" encoding="utf-8"?>
<!-- Generator: Adobe Illustrator 16.0.0, SVG Export Plug-In . SVG Version: 6.00 Build 0)  -->
<!DOCTYPE svg PUBLIC "-//W3C//DTD SVG 1.1//EN" "http://www.w3.org/Graphics/SVG/1.1/DTD/svg11.dtd">
<svg version="1.1" id="Layer_1" xmlns="http://www.w3.org/2000/svg" xmlns:xlink="http://www.w3.org/1999/xlink" x="0px" y="0px"
	 width="300px" height="400px" viewBox="0 0 300 400" enable-background="new 0 0 300 400" xml:space="preserve">
<g>
	<g>
		<path fill="#935593" d="M262.368,285.322l-22.404-14.271l5.836-1.052c5.451-0.982,12.227-4.409,15.654-6.288l-28.906-39.552
			l3.693-2.803l33.746,42.816L262.368,285.322z"/>
	</g>
	<path fill="#935593" d="M71.284,165.973C106.412,130.496,88.79,33.718,88.79,33.718c9.043-0.003,10.434,44.607,11.709,54.346
		c17.507,30.839,50.553,54.731,76.131,68.027l2.195,1.142c25.148,13.101,43.854,30.523,57.742,64.685
		c0.482,1.187-0.088,2.539-1.273,3.021c-0.287,0.117-0.582,0.172-0.873,0.172c-0.916,0-1.783-0.546-2.148-1.447
		c-13.434-33.039-31.516-49.776-55.592-62.319l-2.189-1.139c-25.236-13.118-43.965-15.101-75.182-56.8
		C99.31,103.405,101.079,140.931,71.284,165.973z"/>
	<path fill="#935593" d="M137.021,130.967c34.008-24.664,19.658-96.6,19.658-96.6c7.775,0,11.373,48.169,10.137,55.899
		c3.129,12.019,20.365,13.486,25.021,74.779C148.149,146.379,137.021,130.967,137.021,130.967z"/>
	<path fill="#935593" d="M200.003,220.604c-1.064-1.387-2.113-2.796-3.32-4.048c-1.203-1.249-2.623-2.276-4.23-2.844
		c-1.602-0.581-3.328-0.734-5.041-0.713c-1.717,0.007-3.438,0.224-5.146,0.49l-10.326,1.847c-3.453,0.604-6.914,1.164-10.375,1.714
		c-6.932,1.072-13.883,2.056-20.865,2.815c-3.49,0.389-6.989,0.724-10.49,1.034c-3.504,0.289-7.012,0.551-10.525,0.75
		c-3.514,0.196-7.032,0.357-10.556,0.44c-1.761,0.047-3.524,0.087-5.288,0.09c-1.764,0.027-3.527,0.01-5.292-0.021
		c-3.53-0.04-7.062-0.17-10.594-0.366c-3.532-0.19-7.062-0.482-10.591-0.837c-1.764-0.185-3.523-0.414-5.287-0.619
		c-1.758-0.258-3.518-0.499-5.275-0.779c-3.508-0.591-7.014-1.243-10.492-2.066c-1.74-0.405-3.479-0.819-5.202-1.313
		c-0.863-0.241-1.73-0.463-2.591-0.719l-2.568-0.805c-3.427-1.08-6.789-2.388-10.122-3.78l4.358-4.316
		c0.788,1.559,1.973,3.145,3.442,4.613c0.718,0.741,1.557,1.429,2.333,2.144c0.865,0.664,1.695,1.353,2.582,1.999
		c0.912,0.625,1.795,1.278,2.729,1.884c0.948,0.593,1.879,1.203,2.838,1.784l2.919,1.699l2.988,1.614
		c2.017,1.043,4.041,2.078,6.111,3.043c2.051,0.996,4.15,1.916,6.241,2.846c2.103,0.912,4.212,1.809,6.343,2.669
		c2.125,0.87,4.267,1.708,6.414,2.532c8.585,3.314,17.307,6.346,26.104,9.129c4.398,1.395,8.815,2.73,13.244,3.994
		c2.213,0.637,4.431,1.239,6.645,1.828l3.305,0.838c1.094,0.272,2.195,0.52,3.15,0.705l8.631,1.682l-6.59,5.736
		c-1.324,1.152-2.648,2.113-3.977,3.004c-1.329,0.875-2.664,1.688-4.008,2.444c-2.688,1.516-5.406,2.867-8.154,4.129
		c-5.489,2.528-11.107,4.646-16.829,6.49c-2.861,0.922-5.75,1.768-8.679,2.514c-1.465,0.372-2.934,0.734-4.42,1.052
		c-1.48,0.333-2.978,0.623-4.484,0.89c-3.018,0.528-6.084,0.936-9.25,1.102c-1.587,0.075-3.188,0.113-4.846,0.018
		c-1.637-0.054-3.353-0.292-5.092-0.635l4.104-7.729l2.375,2.135c0.808,0.692,1.641,1.354,2.458,2.032
		c1.673,1.311,3.388,2.565,5.159,3.733c3.543,2.336,7.289,4.357,11.188,6.038c3.896,1.682,7.945,3.023,12.085,4.028
		c2.07,0.5,4.163,0.913,6.27,1.268c2.108,0.344,4.231,0.605,6.366,0.797c2.135,0.182,4.277,0.286,6.426,0.324
		c1.074,0.019,2.15-0.008,3.226-0.008c1.075-0.021,2.151-0.081,3.228-0.118l3.227-0.226l3.221-0.331l3.213-0.433l3.201-0.532
		l3.188-0.628l3.17-0.724l3.15-0.814l3.127-0.904l3.104-0.992l3.078-1.079l3.045-1.163l3.016-1.246l27.207-11.244l-22.504,18.792
		c-3.678,3.069-7.346,5.708-11.021,8.354l-10.998,7.803c-7.324,5.145-14.557,10.342-21.552,15.784
		c-1.747,1.361-3.476,2.739-5.187,4.136c-1.702,1.403-3.402,2.809-5.055,4.257c-0.836,0.715-1.66,1.44-2.468,2.179
		c-0.812,0.735-1.636,1.462-2.421,2.219c-1.602,1.488-3.146,3.019-4.662,4.568c-0.738,0.788-1.494,1.564-2.219,2.361l-2.123,2.417
		c-0.664,0.828-1.354,1.646-2.002,2.48c-0.614,0.851-1.273,1.684-1.854,2.545c-1.156,1.725-2.264,3.477-3.104,5.276
		c-0.209,0.449-0.441,0.896-0.637,1.346l-0.51,1.357l-0.262,0.678l-0.179,0.678l-0.374,1.352l-5.844-4.064l6.168-3.51
		c2.066-1.151,4.216-2.161,6.319-3.245c1.047-0.554,2.128-1.038,3.216-1.511l3.251-1.44l1.626-0.719l1.658-0.64l3.318-1.276
		l1.66-0.633l1.686-0.559l3.37-1.116c1.118-0.391,2.257-0.701,3.395-1.022l3.408-0.964c2.276-0.622,4.575-1.123,6.86-1.689
		c2.295-0.499,4.596-0.959,6.891-1.432l6.898-1.226c2.297-0.366,4.602-0.737,6.895-1.072l13.734-1.969
		c2.277-0.339,4.566-0.647,6.834-1.011c2.27-0.363,4.549-0.687,6.809-1.082c2.26-0.397,4.529-0.763,6.783-1.186l6.758-1.307
		l13.93-2.693l-12.141,7.208l-2.701,1.604c-0.463,0.261-0.869,0.556-1.305,0.833l-1.287,0.845c-0.445,0.27-0.82,0.591-1.223,0.891
		l-1.197,0.907c-0.404,0.299-0.732,0.655-1.104,0.979l-1.084,0.999l-0.961,1.104c-0.307,0.38-0.676,0.707-0.934,1.133l-0.842,1.221
		c-0.285,0.405-0.576,0.804-0.805,1.261l-0.734,1.326c-0.24,0.445-0.508,0.871-0.705,1.353l-1.285,2.818l-3.145-2.258
		c1.43-1.09,2.812-2.232,4.314-3.228c1.457-1.053,3.008-1.98,4.551-2.904l2.371-1.299l2.436-1.174
		c1.646-0.735,3.314-1.411,5.016-1.995c1.701-0.583,3.426-1.081,5.158-1.518c1.738-0.425,3.484-0.77,5.23-1.074
		c3.494-0.596,6.982-0.991,10.414-1.489c1.717-0.248,3.418-0.534,5.098-0.889c0.836-0.193,1.68-0.36,2.498-0.604l1.236-0.341
		l1.215-0.402c1.625-0.532,3.18-1.235,4.707-1.998c0.734-0.436,1.5-0.82,2.219-1.285c0.701-0.489,1.451-0.912,2.117-1.458
		c1.377-1.025,2.682-2.16,3.91-3.375c0.594-0.627,1.232-1.218,1.793-1.878l1.697-1.977c1.059-1.378,2.131-2.753,3.084-4.215
		c1.02-1.418,1.869-2.946,2.803-4.424c-0.848,1.525-1.611,3.105-2.551,4.585c-0.873,1.521-1.871,2.964-2.861,4.417l-1.602,2.097
		c-0.531,0.703-1.145,1.34-1.717,2.015c-1.182,1.311-2.451,2.552-3.814,3.694c-0.658,0.602-1.408,1.086-2.111,1.637
		c-0.721,0.525-1.492,0.979-2.244,1.466c-1.557,0.876-3.158,1.689-4.83,2.326l-1.252,0.483l-1.271,0.415
		c-0.846,0.294-1.707,0.509-2.564,0.75c-1.723,0.449-3.455,0.824-5.184,1.159c-3.457,0.669-6.898,1.227-10.266,1.966l-2.512,0.592
		l-2.475,0.674c-1.639,0.48-3.256,1.017-4.838,1.63c-1.584,0.613-3.129,1.312-4.646,2.062l-2.242,1.19l-2.178,1.308
		c-1.418,0.928-2.838,1.851-4.174,2.9c-1.379,0.988-2.648,2.129-3.957,3.208l-6.141,5.057l2.994-7.314l1.264-3.082
		c0.191-0.519,0.471-1.019,0.719-1.524l0.766-1.517c0.236-0.513,0.553-0.995,0.863-1.481l0.93-1.46
		c0.285-0.503,0.703-0.925,1.051-1.389l1.102-1.36c0.4-0.42,0.816-0.822,1.227-1.233c0.42-0.398,0.812-0.842,1.256-1.199
		l1.326-1.082c0.445-0.353,0.881-0.739,1.342-1.041l1.371-0.961c0.459-0.313,0.912-0.658,1.377-0.939l2.771-1.763l1.789,4.515
		l-6.811,1.535c-2.273,0.499-4.555,0.938-6.834,1.411c-2.277,0.471-4.562,0.867-6.846,1.305s-4.562,0.816-6.846,1.228l-13.645,2.386
		l-6.773,1.248l-6.721,1.348l-6.65,1.535c-2.188,0.595-4.395,1.126-6.562,1.771l-3.24,0.995c-1.08,0.329-2.164,0.649-3.219,1.047
		l-3.186,1.134l-1.593,0.566l-1.564,0.637l-3.123,1.282l-1.561,0.641l-1.529,0.717l-3.056,1.436
		c-1.022,0.471-2.038,0.952-3.022,1.503c-1.979,1.079-3.998,2.077-5.941,3.219l-5.807,3.474l-7.795,4.665l1.951-8.73
		c0.572-2.56,1.347-5.054,2.457-7.27c1.037-2.279,2.31-4.352,3.625-6.367c0.661-1.007,1.381-1.947,2.07-2.924
		c0.715-0.946,1.46-1.857,2.189-2.786l2.283-2.673c0.774-0.873,1.571-1.718,2.357-2.577c1.598-1.681,3.223-3.329,4.887-4.919
		c0.82-0.812,1.67-1.582,2.512-2.364c0.838-0.787,1.688-1.555,2.547-2.311c1.704-1.533,3.443-3.011,5.186-4.486
		c1.746-1.465,3.508-2.907,5.282-4.329c7.101-5.677,14.382-11.057,21.677-16.328l10.926-7.832c3.6-2.607,7.203-5.245,10.404-7.945
		l4.703,7.547l-3.234,1.354l-3.271,1.266l-3.305,1.176l-3.338,1.084l-3.371,0.991l-3.398,0.895l-3.424,0.797l-3.451,0.697
		l-3.473,0.592l-3.492,0.486l-3.51,0.376c-1.175,0.087-2.348,0.192-3.525,0.263c-1.178,0.048-2.355,0.117-3.535,0.146
		c-1.181,0.008-2.361,0.04-3.542,0.025c-1.183-0.035-2.364-0.04-3.546-0.1c-1.182-0.077-2.365-0.122-3.545-0.228
		c-2.362-0.201-4.72-0.481-7.067-0.853c-2.347-0.376-4.681-0.85-6.993-1.421c-4.624-1.144-9.166-2.67-13.545-4.582
		c-4.381-1.912-8.597-4.211-12.575-6.859c-1.99-1.325-3.913-2.744-5.784-4.226c-0.916-0.764-1.847-1.513-2.748-2.292l-2.648-2.403
		l-11.818-10.729l15.922,3.001c1.131,0.213,2.314,0.407,3.601,0.45c1.262,0.081,2.588,0.057,3.92,0
		c2.673-0.127,5.417-0.473,8.159-0.942c1.371-0.235,2.746-0.495,4.119-0.799c1.373-0.285,2.746-0.618,4.115-0.959
		c2.74-0.685,5.469-1.471,8.176-2.331c2.708-0.857,5.396-1.788,8.056-2.79c2.657-1.007,5.292-2.063,7.874-3.208
		s5.118-2.366,7.541-3.691c1.212-0.66,2.384-1.354,3.507-2.071c1.109-0.722,2.157-1.476,3.054-2.229l2.039,7.419
		c-1.324-0.274-2.488-0.56-3.647-0.862l-3.446-0.923c-2.273-0.637-4.537-1.285-6.785-1.963c-4.5-1.349-8.97-2.767-13.422-4.242
		c-8.901-2.952-17.727-6.14-26.449-9.655c-2.177-0.889-4.348-1.795-6.508-2.735c-2.164-0.929-4.314-1.899-6.457-2.887
		c-2.138-1.008-4.279-2.002-6.391-3.085c-2.122-1.048-4.217-2.176-6.307-3.316l-3.113-1.771l-3.071-1.879
		c-1.017-0.646-2.019-1.333-3.026-1.997c-1.002-0.682-1.978-1.432-2.965-2.145c-0.977-0.745-1.924-1.56-2.883-2.338
		c-0.921-0.873-1.865-1.69-2.746-2.636c-0.869-0.974-1.762-1.894-2.523-3.049c-0.831-1.037-1.47-2.362-2.117-3.628l-4.133-8.075
		l8.491,3.759c3.097,1.37,6.233,2.674,9.46,3.769l2.416,0.835c0.81,0.269,1.631,0.505,2.446,0.76
		c1.626,0.522,3.278,0.968,4.935,1.407c3.309,0.891,6.666,1.622,10.039,2.296l5.086,0.911c1.705,0.25,3.408,0.526,5.119,0.758
		c3.423,0.45,6.859,0.84,10.309,1.131c3.449,0.296,6.907,0.531,10.373,0.675c1.732,0.088,3.467,0.144,5.203,0.19
		c1.734,0.064,3.471,0.092,5.209,0.113c3.475,0.053,6.953,0.03,10.433-0.03c3.479-0.062,6.96-0.187,10.44-0.338
		c3.48-0.172,6.961-0.37,10.439-0.621c3.479-0.254,6.957-0.529,10.434-0.841c3.479-0.304,6.953-0.66,10.426-1.028
		c3.473-0.386,6.945-0.781,10.412-1.221c3.477-0.421,6.914-0.926,10.43-1.318c1.76-0.173,3.531-0.295,5.316-0.202
		c1.773,0.079,3.58,0.341,5.242,1.051c1.666,0.697,3.086,1.863,4.232,3.197C198.054,217.695,199.019,219.159,200.003,220.604z"/>
	<g>
		<path fill="#935593" d="M193.159,244.579c-1.115,0.177-2.254,0.291-3.398,0.311c-1.143,0.048-2.287-0.02-3.428-0.101
			c-2.289-0.162-4.555-0.555-6.795-1.055c-1.119-0.256-2.238-0.52-3.34-0.85c-1.102-0.322-2.199-0.668-3.283-1.049
			c-1.09-0.369-2.166-0.777-3.236-1.202c-1.074-0.417-2.129-0.886-3.176-1.371c-1.043-0.489-2.078-1.004-3.104-1.539
			c-1.021-0.546-2.037-1.103-3.035-1.696c-0.998-0.594-1.99-1.203-2.947-1.871c-0.965-0.656-1.916-1.339-2.836-2.07
			c-0.934-0.715-1.834-1.478-2.703-2.287c-0.439-0.399-0.871-0.806-1.287-1.236c-0.426-0.418-0.84-0.852-1.238-1.305
			c-0.816-0.882-1.57-1.839-2.273-2.846c-0.713-0.999-1.338-2.083-1.912-3.205c-0.479-0.937-0.221-2.056,0.561-2.696l0.021-0.017
			l0.299-0.245l0.256-0.194c0.174-0.123,0.348-0.235,0.525-0.345c0.357-0.218,0.73,0.057,1.127-0.12
			c0.791-0.354,1.711-0.154,2.744-0.154h0.012c0.971,0,1.809,0.107,2.158,0.951c1.541,3.745,3.779,6.942,6.57,9.933
			c1.396,1.492,2.918,2.768,4.551,4.042c1.633,1.273,3.35,2.409,5.154,3.478c1.805,1.074,3.691,1.995,5.609,2.902
			c1.924,0.904,3.912,1.661,5.924,2.395c2.01,0.744,4.07,1.354,6.146,1.948C188.907,243.66,191.015,244.17,193.159,244.579z"/>
	</g>
	<path stroke="#000000" stroke-width="5" stroke-miterlimit="10" d="M202.718,327.511"/>
	<path fill="#935593" d="M182.515,214.084c-3.287,0-6.215,1.526-8.125,3.906c0.74-0.344,1.564-0.542,2.436-0.542
		c3.201,0,5.797,2.596,5.797,5.797c0,3.202-2.596,5.797-5.797,5.797c-1.771,0-3.355-0.796-4.42-2.049
		c1.119,4.55,5.215,7.931,10.109,7.931c5.756,0,10.42-4.666,10.42-10.419C192.935,218.75,188.271,214.084,182.515,214.084z"/>
	<g>
		<path fill="#935593" d="M195.226,214.566c3.125,2.013,7.969,11.362,5.482,9.838c-9.725-5.96-34.207-7.606-51.617-5.41
			C149.091,218.995,186.313,208.828,195.226,214.566z"/>
		<path fill="#935593" d="M195.226,214.566c1.128,0.767,1.984,1.856,2.795,2.938c0.801,1.098,1.523,2.252,2.166,3.449
			c0.32,0.6,0.622,1.21,0.877,1.842c0.126,0.316,0.242,0.638,0.321,0.973c0.037,0.168,0.069,0.339,0.056,0.52
			c-0.009,0.088-0.026,0.189-0.105,0.265c-0.081,0.078-0.198,0.079-0.285,0.06c-0.659-0.265-1.189-0.674-1.817-0.945
			c-0.6-0.31-1.227-0.571-1.85-0.833c-1.254-0.515-2.552-0.911-3.852-1.287c-1.304-0.368-2.624-0.674-3.948-0.955
			c-2.653-0.547-5.335-0.944-8.025-1.251s-5.393-0.504-8.097-0.631c-2.705-0.114-5.411-0.204-8.118-0.191
			c-2.707,0.005-5.413,0.079-8.113,0.244c-2.7,0.155-5.398,0.674-8.081,0.674h-0.008c-0.253,0-0.483-0.142-0.514-0.395
			c-0.028-0.232,0.122-0.441,0.342-0.498c3.805-0.992,7.623-1.883,11.473-2.646c3.847-0.771,7.711-1.457,11.595-2.008
			c3.884-0.555,7.791-0.946,11.71-1.098c1.959-0.066,3.925-0.047,5.875,0.157C191.556,213.173,193.549,213.523,195.226,214.566z
			 M195.226,214.566c-1.688-1.024-3.678-1.351-5.609-1.554c-1.948-0.183-3.91-0.18-5.864-0.093
			c-3.913,0.166-7.795,0.731-11.652,1.37c-3.858,0.655-7.691,1.446-11.505,2.32c-3.807,0.893-7.617,1.803-11.382,2.83l-0.18-0.904
			c2.705-0.347,5.421-0.607,8.142-0.754c2.722-0.138,5.447-0.192,8.169-0.169c2.724,0.029,5.447,0.104,8.163,0.312
			c2.715,0.2,5.426,0.47,8.122,0.851c2.695,0.38,5.379,0.851,8.029,1.472c2.647,0.629,5.27,1.396,7.78,2.45
			c0.624,0.27,1.25,0.538,1.853,0.858c0.617,0.275,1.186,0.707,1.779,0.953c0.159,0.049,0.262-0.06,0.267-0.229
			c0.014-0.159-0.015-0.326-0.05-0.489c-0.074-0.327-0.187-0.647-0.309-0.961c-0.247-0.63-0.542-1.241-0.855-1.842
			c-0.632-1.2-1.343-2.359-2.132-3.462C197.191,216.438,196.347,215.343,195.226,214.566z"/>
	</g>
</g>
</svg>
