<?xml version="1.0" standalone="no"?>
<!DOCTYPE svg PUBLIC "-//W3C//DTD SVG 20010904//EN"
 "http://www.w3.org/TR/2001/REC-SVG-20010904/DTD/svg10.dtd">
<svg version="1.0" xmlns="http://www.w3.org/2000/svg"
 width="937.000000pt" height="680.000000pt" viewBox="0 0 937.000000 680.000000"
 preserveAspectRatio="xMidYMid meet">
<metadata>
Created by potrace 1.11, written by Peter Selinger 2001-2013
</metadata>
<g transform="translate(0.000000,680.000000) scale(0.100000,-0.100000)"
fill="#000000" stroke="none">
<path d="M5239 6570 l-4 -221 -46 -42 c-54 -49 -76 -88 -85 -148 -4 -24 -14
-52 -23 -63 -24 -27 -19 -102 10 -156 24 -45 24 -47 22 -310 -6 -733 -86
-1818 -194 -2654 -24 -181 -31 -206 -57 -206 -26 0 -69 -35 -87 -70 -22 -43
-18 -81 15 -155 17 -37 30 -74 30 -83 0 -27 -85 -319 -156 -537 -36 -110 -77
-235 -91 -277 l-25 -78 -116 0 c-157 0 -163 -6 -84 -76 34 -31 62 -62 62 -70
0 -7 -12 -16 -27 -20 -53 -11 -73 -24 -89 -57 -15 -31 -15 -36 0 -65 38 -74
19 -114 -294 -632 -128 -212 -255 -422 -283 -467 -49 -82 -50 -83 -91 -83 -72
0 -86 -8 -86 -47 l0 -34 353 3 c270 2 357 6 375 16 30 17 102 82 102 92 0 4
-29 11 -65 15 -36 3 -65 9 -65 12 0 13 218 423 252 474 81 121 265 222 485
266 123 24 423 24 546 0 197 -40 396 -143 471 -245 32 -44 266 -477 266 -494
0 -3 -29 -10 -65 -13 -36 -4 -65 -11 -65 -15 0 -10 72 -75 102 -92 18 -10 105
-14 376 -16 l352 -3 0 34 c0 39 -14 47 -86 47 -41 0 -42 1 -91 83 -28 45 -155
255 -283 467 -243 403 -310 525 -310 572 0 15 7 43 16 61 15 31 15 36 0 66
-17 32 -37 44 -88 55 -16 4 -28 13 -28 20 0 8 28 39 63 70 78 70 72 76 -85 76
l-116 0 -86 263 c-94 291 -144 456 -172 563 l-18 72 32 72 c18 40 32 87 32
105 0 45 -37 97 -87 120 -50 23 -51 25 -83 285 -105 858 -178 1881 -183 2580
-2 253 -1 267 19 305 34 64 38 100 16 148 -10 23 -24 65 -31 92 -15 61 -43
104 -86 132 -31 20 -32 25 -38 105 -4 45 -7 149 -7 231 0 81 -4 147 -9 147 -5
0 -10 -99 -12 -220z m191 -4384 c0 -13 102 -501 114 -546 9 -30 13 -57 10 -60
-3 -3 -143 -6 -311 -8 -289 -3 -304 -2 -299 15 15 53 30 121 76 347 27 136 50
250 50 252 0 2 81 4 180 4 99 0 180 -2 180 -4z"/>
<path d="M2885 2310 l0 -730 285 0 c290 0 483 11 568 31 69 17 222 91 283 137
161 121 241 302 241 542 0 142 -20 238 -72 344 -81 165 -268 318 -450 370 -99
28 -220 36 -540 36 l-315 0 0 -730z m700 588 c65 -13 123 -47 180 -106 100
-102 137 -243 138 -517 0 -294 -34 -406 -156 -501 -65 -51 -143 -67 -301 -62
-146 4 -189 18 -207 66 -7 17 -10 212 -10 538 -1 565 1 577 58 590 15 3 33 8
38 10 16 6 206 -7 260 -18z"/>
<path d="M5945 3030 c-3 -5 63 -117 148 -247 84 -131 202 -314 262 -408 l108
-169 -5 -318 -5 -318 180 0 180 0 -7 349 -7 348 89 144 c49 79 157 249 240
378 84 128 152 238 152 243 0 5 -50 7 -112 6 l-113 -3 -100 -186 c-114 -212
-213 -382 -243 -419 -18 -22 -22 -23 -35 -10 -12 12 -173 289 -334 578 l-24
42 -184 0 c-109 0 -186 -4 -190 -10z"/>
<path d="M581 2555 c-77 -22 -149 -63 -198 -114 -24 -25 -46 -42 -49 -38 -4 3
-9 38 -12 77 l-5 70 -155 0 -155 0 6 -97 c4 -54 7 -389 7 -745 l0 -648 166 0
166 0 -6 27 c-3 16 -8 91 -11 168 -3 77 -8 191 -11 252 l-6 113 68 -26 c186
-70 399 -23 529 117 235 255 194 702 -76 824 -76 34 -180 42 -258 20z m79
-173 c44 -32 69 -98 82 -216 26 -241 -31 -418 -155 -482 -43 -23 -117 -12
-194 27 l-63 32 0 234 c0 211 2 237 19 271 30 58 124 141 176 155 34 10 109
-2 135 -21z"/>
<path d="M2010 2560 l-315 -5 -67 -32 c-71 -34 -145 -95 -178 -148 -50 -81
-46 -233 8 -310 25 -35 71 -72 137 -111 17 -9 14 -13 -21 -34 -121 -72 -166
-140 -145 -218 13 -46 62 -94 115 -112 20 -6 36 -15 36 -19 0 -4 -31 -22 -70
-41 -115 -56 -140 -94 -140 -213 1 -118 41 -178 155 -227 135 -58 476 -48 669
19 168 59 276 186 276 324 0 111 -44 183 -143 233 -80 41 -150 52 -377 59
-158 5 -221 11 -237 21 -30 19 -45 79 -33 126 l10 36 118 -5 c196 -9 313 22
408 109 66 60 94 124 94 216 0 80 -22 142 -66 182 -34 33 -30 42 19 36 23 -3
72 -8 110 -11 l67 -7 0 71 0 71 -57 -2 c-32 -1 -200 -5 -373 -8z m-74 -101
c62 -29 79 -80 79 -224 -1 -125 -12 -169 -55 -210 -25 -24 -41 -30 -93 -33
-52 -3 -66 -1 -90 18 -40 32 -56 71 -63 152 -7 86 10 222 32 256 22 33 74 62
113 62 19 0 54 -9 77 -21z m103 -930 c103 -17 144 -67 139 -166 -5 -81 -38
-125 -129 -171 -118 -60 -264 -55 -343 10 -83 68 -99 176 -43 291 l28 56 147
-5 c81 -3 171 -10 201 -15z"/>
<path d="M8082 1530 c-45 -28 -72 -76 -72 -131 0 -153 210 -206 288 -73 43 74
14 172 -62 208 -47 22 -114 20 -154 -4z"/>
<path d="M2961 1483 l-74 -4 8 -110 c9 -144 9 -1071 0 -1227 l-8 -122 183 0
182 0 -6 83 c-6 67 -25 482 -26 537 0 13 23 15 164 12 183 -4 246 6 351 58
157 76 246 219 248 400 1 168 -87 292 -251 352 -53 20 -78 22 -377 23 -176 1
-353 0 -394 -2z m556 -118 c52 -22 72 -42 99 -100 21 -44 24 -65 24 -177 l0
-127 -37 -72 c-34 -65 -44 -76 -93 -102 -53 -28 -58 -29 -159 -24 -69 4 -107
10 -112 19 -10 15 -14 166 -10 383 4 206 10 213 164 214 58 1 100 -4 124 -14z"/>
<path d="M7563 996 c-31 -15 -79 -53 -120 -95 -38 -39 -72 -71 -76 -71 -4 0
-7 20 -7 44 0 24 -3 64 -6 90 l-7 46 -154 0 -155 0 7 -62 c10 -82 10 -808 1
-875 l-8 -53 168 0 167 0 -6 293 c-3 160 -2 312 2 336 11 55 37 90 91 120 52
29 135 32 192 7 21 -9 42 -16 47 -16 21 0 71 224 55 240 -5 5 -38 12 -74 15
-56 5 -72 3 -117 -19z"/>
<path d="M8922 1010 c-148 -22 -272 -135 -272 -248 0 -135 40 -192 220 -310
165 -109 196 -135 215 -185 24 -64 7 -123 -40 -143 -46 -19 -139 -18 -181 2
-45 22 -121 90 -140 125 -11 22 -22 29 -43 29 -41 0 -52 -19 -66 -112 -10 -66
-10 -86 0 -97 38 -41 323 -74 450 -52 185 32 283 125 293 276 9 138 -43 205
-253 330 -136 81 -182 122 -190 169 -12 61 39 126 98 126 64 0 132 -46 188
-127 21 -31 37 -43 54 -43 21 0 27 8 40 53 8 28 18 76 22 104 6 53 6 53 -28
67 -73 30 -274 50 -367 36z"/>
<path d="M8050 1003 l-45 -4 0 -457 c0 -251 -3 -472 -7 -489 l-7 -33 167 0
167 0 0 437 c0 241 2 463 5 493 l4 55 -119 1 c-66 0 -140 -1 -165 -3z"/>
</g>
</svg>
