<?xml version="1.0" standalone="no"?>
<!DOCTYPE svg PUBLIC "-//W3C//DTD SVG 20010904//EN"
 "http://www.w3.org/TR/2001/REC-SVG-20010904/DTD/svg10.dtd">
<svg version="1.0" xmlns="http://www.w3.org/2000/svg"
 width="954.000000pt" height="792.000000pt" viewBox="0 0 954.000000 792.000000"
 preserveAspectRatio="xMidYMid meet">
<metadata>
Created by potrace 1.11, written by Peter Selinger 2001-2013
</metadata>
<g transform="translate(0.000000,792.000000) scale(0.100000,-0.100000)"
fill="#000000" stroke="none">
<path d="M5229 6893 c0 -4 0 -84 1 -178 0 -93 -3 -175 -7 -180 -5 -6 -20 -18
-35 -27 -32 -21 -73 -99 -65 -127 3 -12 -2 -26 -14 -37 -26 -24 -25 -83 4
-131 21 -36 22 -47 20 -218 -5 -521 -59 -1324 -129 -1915 -47 -400 -45 -395
-74 -398 -33 -5 -67 -37 -80 -78 -10 -28 -7 -41 20 -100 l30 -68 -36 -130
c-19 -72 -69 -233 -111 -358 l-75 -228 -104 0 c-122 0 -127 -6 -53 -64 59 -45
62 -70 7 -74 -29 -3 -39 -9 -51 -35 -14 -27 -14 -34 -1 -58 32 -63 28 -72
-244 -520 l-258 -424 -52 -3 c-50 -3 -52 -4 -52 -33 l0 -29 283 0 c246 0 286
2 307 17 42 27 80 66 74 75 -3 4 -27 8 -55 8 -27 0 -49 3 -49 6 0 4 48 97 106
208 99 189 109 204 165 248 135 107 309 158 539 158 230 0 404 -51 539 -158
56 -44 66 -59 165 -248 58 -111 106 -204 106 -208 0 -3 -22 -6 -49 -6 -28 0
-52 -4 -55 -8 -6 -9 32 -48 74 -75 21 -15 61 -17 307 -17 l283 0 0 29 c0 29
-2 30 -52 33 l-52 3 -258 424 c-272 448 -276 457 -244 520 13 24 13 31 -1 58
-12 26 -22 32 -51 35 -55 4 -52 29 7 74 74 58 69 64 -53 64 l-104 0 -75 228
c-42 125 -92 286 -111 358 l-36 130 30 68 c27 59 30 72 20 100 -13 41 -47 73
-80 78 -23 3 -25 9 -37 93 -89 653 -159 1590 -166 2210 -2 181 -1 192 21 228
27 47 29 107 3 131 -11 10 -16 25 -14 40 6 30 -36 107 -67 123 -12 6 -27 17
-32 25 -4 7 -8 92 -7 188 1 122 -2 175 -10 178 -6 2 -11 0 -12 -5z m187 -3843
c28 -143 51 -248 70 -312 5 -17 -11 -18 -244 -18 l-249 0 18 78 c11 42 33 149
50 237 17 88 32 166 34 173 4 10 38 12 147 10 l142 -3 32 -165z"/>
<path d="M3348 3822 c9 -99 9 -936 0 -1024 l-7 -68 290 0 c337 0 398 8 529 72
191 93 291 261 293 492 1 203 -76 362 -231 476 -148 109 -249 131 -613 129
l-269 -1 8 -76z m597 -48 c76 -27 155 -111 184 -194 30 -91 45 -287 31 -421
-14 -139 -32 -191 -89 -249 -60 -62 -117 -80 -258 -80 -112 0 -164 14 -182 48
-15 29 -15 842 0 876 6 13 21 29 33 35 32 17 221 7 281 -15z"/>
<path d="M5787 3886 c4 -6 50 -76 102 -156 52 -80 146 -226 209 -325 l114
-180 -5 -252 -5 -251 145 0 145 0 -7 277 -7 276 64 105 c35 58 123 196 196
307 73 112 132 204 132 206 0 2 -41 3 -92 3 l-92 -1 -69 -130 c-37 -71 -102
-188 -144 -258 -61 -102 -78 -126 -88 -115 -14 15 -183 308 -245 424 l-43 80
-158 1 c-112 0 -156 -3 -152 -11z"/>
<path d="M1483 3501 c-60 -20 -129 -65 -150 -98 -24 -36 -32 -27 -35 40 l-3
62 -125 0 -125 0 5 -45 c3 -25 5 -293 5 -597 l0 -552 134 0 133 0 -6 27 c-3
15 -9 116 -12 225 l-7 197 47 -20 c104 -46 258 -33 358 31 217 140 263 495 86
671 -74 74 -195 97 -305 59z m89 -131 c40 -31 60 -94 65 -207 6 -112 -7 -204
-38 -264 -21 -42 -70 -86 -105 -95 -40 -10 -108 5 -153 34 l-41 26 0 185 c0
179 1 185 25 227 23 39 84 91 125 107 35 13 98 7 122 -13z"/>
<path d="M2400 3505 c-106 -30 -199 -107 -220 -184 -15 -55 -11 -132 9 -177
20 -43 82 -101 119 -110 32 -9 28 -16 -23 -43 -25 -13 -59 -39 -75 -58 -61
-69 -29 -165 64 -197 l40 -14 -72 -36 c-93 -47 -107 -69 -107 -167 0 -86 14
-115 75 -157 65 -44 133 -57 290 -56 256 1 421 70 494 205 24 44 28 59 24 114
-6 102 -56 157 -180 198 -54 18 -88 21 -239 21 -159 1 -179 3 -198 20 -23 21
-29 83 -11 116 8 16 15 17 52 8 62 -14 203 -3 269 21 113 43 181 129 181 230
1 64 -17 113 -56 155 l-28 29 91 -7 91 -8 0 57 0 57 -92 -6 c-118 -8 -227 -8
-348 -1 -69 3 -110 1 -150 -10z m185 -69 c52 -22 68 -64 69 -176 1 -116 -18
-170 -69 -194 -65 -31 -137 -9 -161 51 -24 57 -16 242 12 280 39 52 87 65 149
39z m137 -761 c47 -23 72 -73 65 -127 -10 -74 -66 -128 -162 -153 -102 -26
-171 -15 -230 36 -61 54 -70 146 -23 231 l23 40 145 -4 c115 -3 153 -8 182
-23z"/>
<path d="M7513 2694 c-59 -30 -84 -97 -59 -157 18 -44 54 -68 109 -74 55 -6
105 26 126 81 28 74 -22 152 -105 162 -25 3 -51 -1 -71 -12z"/>
<path d="M3522 2653 l-172 -3 7 -118 c10 -151 10 -783 0 -934 l-7 -117 146 0
147 0 -7 67 c-3 37 -9 151 -13 254 l-6 187 114 -6 c130 -6 206 5 286 42 101
46 161 113 193 214 39 123 17 240 -61 319 -77 77 -171 104 -354 100 -55 -2
-178 -4 -273 -5z m348 -101 c24 -12 43 -33 60 -67 22 -43 25 -63 25 -151 0
-92 -3 -105 -30 -159 -23 -46 -40 -64 -75 -83 -40 -21 -54 -23 -127 -19 -44 3
-86 8 -92 11 -15 10 -15 420 0 447 15 29 44 38 129 38 52 1 86 -4 110 -17z"/>
<path d="M7082 2259 c-23 -11 -67 -49 -97 -82 -55 -60 -55 -60 -55 -30 0 17
-3 51 -6 77 l-7 46 -123 0 -124 0 8 -62 c9 -81 9 -619 0 -680 l-8 -47 134 0
133 0 -4 257 c-4 247 -4 258 16 290 43 67 141 93 212 56 17 -8 37 -13 44 -10
12 4 51 183 41 193 -2 3 -31 7 -63 10 -46 3 -67 0 -101 -18z"/>
<path d="M8154 2269 c-65 -15 -146 -69 -172 -114 -19 -33 -22 -51 -20 -107 6
-109 31 -136 265 -283 66 -41 96 -89 90 -139 -3 -21 -12 -45 -20 -53 -18 -18
-92 -28 -141 -19 -38 7 -131 84 -141 117 -5 16 -14 19 -38 17 -31 -3 -32 -4
-44 -78 -7 -41 -11 -80 -9 -87 3 -6 37 -19 78 -28 298 -68 513 12 526 196 9
120 -38 181 -211 277 -53 29 -107 67 -121 83 -35 41 -35 91 0 126 51 50 149
15 200 -73 26 -43 55 -57 70 -32 8 13 33 124 34 149 0 38 -246 72 -346 48z"/>
<path d="M7438 2264 c-2 -2 -1 -29 3 -61 10 -77 10 -570 1 -655 l-8 -66 138 0
137 0 -7 46 c-9 61 -9 599 0 679 l8 62 -134 0 c-74 0 -136 -2 -138 -5z"/>
<path d="M6030 1215 c0 -87 3 -105 15 -105 11 0 15 12 15 45 0 43 1 45 29 45
40 0 74 30 74 65 0 38 -26 55 -85 55 l-48 0 0 -105z"/>
<path d="M8031 1306 c-53 -29 -68 -115 -28 -161 16 -20 36 -28 77 -34 30 -4
67 -15 82 -25 19 -12 32 -15 43 -8 14 7 12 11 -14 22 -42 17 -45 24 -26 59 50
97 -42 198 -134 147z m91 -24 c27 -23 33 -78 14 -118 -32 -69 -126 -30 -126
52 0 80 57 113 112 66z"/>
<path d="M2241 1224 c-27 -34 -26 -54 0 -88 28 -35 73 -33 102 6 52 70 -48
151 -102 82z"/>
<path d="M6311 1224 c-27 -34 -26 -54 0 -88 28 -35 73 -33 102 6 52 70 -48
151 -102 82z"/>
<path d="M7018 1239 c-20 -11 -24 -54 -8 -64 8 -5 7 -11 -1 -21 -6 -7 -9 -21
-5 -29 3 -9 0 -25 -7 -36 -10 -17 -9 -22 7 -35 41 -30 126 -6 126 35 0 28 -21
41 -67 41 -32 0 -43 4 -43 15 0 10 10 15 28 15 35 0 52 16 52 51 0 15 6 30 13
32 6 3 -8 6 -33 6 -25 0 -53 -4 -62 -10z"/>
</g>
</svg>
